<svg width="140" height="30" viewBox="0 0 140 30" fill="none" xmlns="http://www.w3.org/2000/svg">
<g id="api-logo" clip-path="url(#clip0_3994_495)">
<path id="Vector" d="M49.0991 18.3045H41.6325L40.1018 22.3954H36.3125L43.3685 4.48633H47.5171L54.5171 22.4H50.6298L49.0991 18.3045ZM42.8225 15.1227H47.9045L45.3658 8.34996L42.8225 15.1227Z" fill="#09090B"/>
<path id="Vector_2" d="M59.6965 15.6545V22.4H56.1172V4.48633H63.0005C66.6359 4.48633 69.0439 6.83633 69.0439 10.0681C69.0439 13.3 66.6219 15.6545 63.0005 15.6545H59.6965ZM62.5339 12.6454C64.3212 12.6454 65.4132 11.6363 65.4132 10.0954C65.4132 8.55451 64.3212 7.51815 62.5339 7.51815H59.7339V12.6454H62.5339Z" fill="#09090B"/>
<path id="Vector_3" d="M70.8086 22.4V4.48633H74.4392V22.4H70.8086Z" fill="#09090B"/>
<path id="Vector_4" d="M79.959 17.9773C80.426 17.9773 80.8826 18.1122 81.2709 18.3649C81.6592 18.6176 81.9619 18.9769 82.1406 19.3971C82.3193 19.8174 82.3661 20.2798 82.275 20.726C82.1839 21.1722 81.959 21.582 81.6287 21.9036C81.2985 22.2253 80.8777 22.4444 80.4197 22.5331C79.9616 22.6219 79.4868 22.5763 79.0554 22.4022C78.6239 22.2281 78.2551 21.9333 77.9956 21.5551C77.7361 21.1769 77.5977 20.7322 77.5977 20.2773C77.6013 19.6684 77.8513 19.0855 78.2933 18.6549C78.7354 18.2243 79.3339 17.9809 79.959 17.9773Z" fill="#09090B"/>
<path id="Vector_5" d="M92.1009 4.48633C95.6803 4.48633 97.7009 6.53178 97.7009 9.3136C97.723 10.1451 97.4769 10.9624 96.9973 11.6506C96.5176 12.3388 95.8285 12.8632 95.0269 13.15C95.9868 13.3888 96.834 13.94 97.4281 14.7122C98.0222 15.4843 98.3276 16.431 98.2936 17.3954C98.2936 20.3 96.0629 22.3954 92.6143 22.3954H85.4883V4.48633H92.1009ZM91.5549 11.8909C93.1883 11.8909 94.1776 11.0045 94.1776 9.64087C94.1776 8.27724 93.2676 7.41814 91.5316 7.41814H89.0163V11.8909H91.5549ZM91.9329 19.4954C93.6689 19.4954 94.7096 18.5863 94.7096 17.1681C94.7096 15.75 93.7763 14.7681 91.9843 14.7681H89.0303V19.4954H91.9329Z" fill="#09090B"/>
<path id="Vector_6" d="M102.202 3.80453C102.62 3.80815 103.029 3.93199 103.375 4.16053C103.722 4.38908 103.992 4.71218 104.151 5.08938C104.31 5.46658 104.352 5.88112 104.27 6.2811C104.188 6.68109 103.987 7.04874 103.692 7.33804C103.397 7.62733 103.021 7.82542 102.611 7.90749C102.201 7.98956 101.775 7.95197 101.387 7.79943C100.998 7.64689 100.665 7.38617 100.428 7.04992C100.191 6.71367 100.061 6.31683 100.055 5.90907C100.051 5.63267 100.103 5.35822 100.209 5.10185C100.315 4.84549 100.473 4.6124 100.673 4.4163C100.873 4.2202 101.111 4.06506 101.374 3.95999C101.636 3.85493 101.918 3.80207 102.202 3.80453ZM100.489 22.4V9.96816H103.938V22.4H100.489Z" fill="#09090B"/>
<path id="Vector_7" d="M106.723 22.3999V4.09082H110.134V11.3317C110.708 10.4499 112.108 9.64083 114.003 9.64083C117.736 9.64083 119.887 12.4454 119.887 16.1317C119.887 19.8954 117.503 22.6999 113.872 22.6999C112.108 22.6999 110.759 21.9454 110.083 20.8817V22.3999H106.723ZM113.256 12.6454C111.52 12.6454 110.064 13.8863 110.064 16.159C110.064 18.4317 111.52 19.6954 113.256 19.6954C114.992 19.6954 116.42 18.4317 116.42 16.159C116.42 13.8863 115.025 12.6454 113.261 12.6454H113.256Z" fill="#09090B"/>
<path id="Vector_8" d="M121.945 22.3999V4.09082H125.394V22.3999H121.945Z" fill="#09090B"/>
<path id="Vector_9" d="M139.817 18.8363C139.169 20.9817 137.148 22.7772 134.007 22.7772C130.507 22.7772 127.418 20.3272 127.418 16.1317C127.418 12.1681 130.428 9.59082 133.695 9.59082C137.638 9.59082 139.999 12.0408 139.999 16.0317C139.999 16.5136 139.948 17.0181 139.948 17.0681H130.815C130.869 17.8546 131.236 18.5897 131.837 19.1175C132.438 19.6453 133.227 19.9243 134.035 19.8954C134.667 19.9471 135.299 19.7882 135.826 19.4447C136.354 19.1011 136.746 18.5933 136.938 18.0045L139.817 18.8363ZM136.602 14.7681C136.551 13.5317 135.72 12.3181 133.746 12.3181C133.039 12.2933 132.349 12.5335 131.819 12.9893C131.288 13.4451 130.957 14.0818 130.895 14.7681H136.602Z" fill="#09090B"/>
<path id="Vector_10" d="M16.4686 29.8216C15.7371 29.8265 15.0299 29.5656 14.4853 29.0898C12.7633 27.5534 8.19462 23.9944 2.99127 23.7489C2.50457 23.7238 2.04463 23.5241 1.7 23.1884C1.35537 22.8528 1.15042 22.4048 1.1246 21.9307L-0.00473761 2.03071C-0.0200352 1.76438 0.0218663 1.49787 0.11829 1.2482C0.214715 0.998527 0.363541 0.771192 0.555264 0.580712C0.751109 0.388184 0.985668 0.237128 1.24424 0.137011C1.50282 0.0368937 1.77983 -0.0101276 2.05793 -0.00110667C7.36411 0.189456 12.446 2.13221 16.4686 5.50799C20.4931 2.13219 25.5765 0.189512 30.884 -0.00110667C31.1613 -0.00949696 31.4375 0.037832 31.6952 0.137931C31.9529 0.23803 32.1867 0.388754 32.382 0.580712C32.5728 0.771839 32.721 0.999279 32.8174 1.24879C32.9137 1.49829 32.9562 1.76449 32.942 2.03071L31.836 21.9307C31.8112 22.4051 31.6066 22.8537 31.2618 23.1896C30.9169 23.5254 30.4564 23.7248 29.9694 23.7489C24.7287 23.9944 20.1787 27.5534 18.4566 29.0898C17.9106 29.5663 17.2017 29.8272 16.4686 29.8216ZM3.63994 21.2853C9.23996 21.7398 13.9066 25.1716 16.2073 27.2171C16.2808 27.2782 16.3743 27.3118 16.471 27.3118C16.5676 27.3118 16.6611 27.2782 16.7346 27.2171C19.068 25.1716 23.7347 21.7398 29.2973 21.2853L30.3287 2.53526C25.9045 2.83245 21.6916 4.49101 18.298 7.27162C20.2673 9.4489 21.3733 11.7534 21.336 13.6353C21.2987 15.5171 20.006 17.5944 16.4686 17.5944C12.9313 17.5944 11.662 15.558 11.6013 13.6353C11.5406 11.7125 12.6746 9.44435 14.6393 7.27162C11.2441 4.48759 7.02715 2.82869 2.59927 2.53526L3.63994 21.2853ZM16.4686 9.01253C14.9753 10.6762 14.1353 12.3444 14.1726 13.5898C14.1726 13.9989 14.2006 15.0853 16.4686 15.0853C18.7366 15.0853 18.76 13.9989 18.7693 13.5898C18.788 12.358 17.962 10.6898 16.4686 9.02617V9.01253Z" fill="#09090B"/>
</g>
<defs>
<clipPath id="clip0_3994_495">
<rect width="140" height="30" fill="white"/>
</clipPath>
</defs>
</svg>
